<svg width="100" height="100" viewBox="0 0 100 100" fill="none" xmlns="http://www.w3.org/2000/svg">
<g clip-path="url(#clip0)">
<path d="M94.9997 45H55.0003V4.9997C55.0003 2.2403 52.76 0 49.9997 0C47.2403 0 45 2.2403 45 4.9997V45H4.9997C2.2403 45 0 47.2403 0 49.9997C0 52.76 2.2403 55.0003 4.9997 55.0003H45V94.9997C45 97.76 47.2403 100 49.9997 100C52.76 100 55.0003 97.76 55.0003 94.9997V55.0003H94.9997C97.76 55.0003 100 52.76 100 49.9997C100 47.2403 97.76 45 94.9997 45V45Z" fill="white"/>
</g>
<defs>
<clipPath id="clip0">
<rect width="100" height="100" fill="white"/>
</clipPath>
</defs>
</svg>
